<?xml version="1.0" standalone="no"?>
<!DOCTYPE svg PUBLIC "-//W3C//DTD SVG 20010904//EN"
 "http://www.w3.org/TR/2001/REC-SVG-20010904/DTD/svg10.dtd">
<svg version="1.0" xmlns="http://www.w3.org/2000/svg"
 width="320.000000pt" height="80.000000pt" viewBox="0 0 320.000000 80.000000"
 preserveAspectRatio="xMidYMid meet">

<g transform="translate(0.000000,80.000000) scale(0.100000,-0.100000)"
fill="#000000" stroke="none">
<path d="M2080 653 c-25 -10 -30 -25 -30 -88 0 -49 -4 -62 -20 -73 -18 -11
-26 -9 -58 13 -43 29 -65 31 -112 6 -31 -17 -36 -17 -58 -3 -19 12 -35 13 -98
4 -43 -6 -83 -17 -94 -27 -17 -15 -22 -14 -81 15 -73 37 -93 36 -195 -10 -38
-17 -71 -31 -74 -31 -3 0 -8 28 -12 62 -4 35 -13 69 -21 76 -19 20 -150 35
-183 23 -24 -10 -26 -13 -22 -70 l3 -60 -52 0 c-46 0 -54 -3 -77 -32 l-25 -33
-34 33 c-40 39 -99 59 -201 68 -73 6 -74 6 -92 -22 -13 -18 -20 -49 -21 -87
-1 -33 -6 -64 -12 -70 -17 -17 -13 -71 10 -132 26 -71 47 -82 124 -67 36 7 64
8 80 2 25 -10 122 3 136 18 4 4 9 21 11 37 l3 30 28 -42 c33 -48 59 -57 124
-43 34 8 54 8 75 -1 40 -16 147 3 171 32 l17 22 38 -25 c20 -14 48 -28 60 -32
33 -11 189 13 203 30 7 8 9 30 6 54 -4 33 -2 42 14 50 19 11 21 6 43 -92 9
-41 38 -52 99 -38 69 16 87 34 88 84 l2 41 6 -40 c10 -62 15 -65 92 -65 49 0
75 -5 85 -15 11 -10 36 -15 78 -15 75 0 91 13 101 83 4 26 11 49 15 52 5 3 14
-20 21 -51 18 -79 40 -92 117 -71 31 9 73 16 92 15 102 -2 218 9 248 25 32 16
34 15 80 -12 26 -16 57 -32 70 -36 29 -9 171 22 194 42 18 16 58 124 58 157 0
11 -19 48 -41 83 -40 61 -44 64 -111 84 -81 25 -111 21 -167 -19 l-40 -29 -61
29 c-80 38 -114 44 -142 26 -17 -11 -44 -13 -98 -10 -126 7 -134 7 -172 -1
-38 -8 -38 -8 -28 18 14 36 12 90 -2 103 -12 9 -39 16 -118 27 -14 2 -32 1
-40 -2z"/>
<path d="M392 613 c-30 -6 -49 -37 -57 -96 -4 -26 -10 -45 -14 -42 -3 4 -15
32 -26 63 -19 55 -21 57 -59 60 -53 4 -122 -23 -129 -50 -7 -24 10 -78 82
-262 28 -71 56 -133 63 -138 7 -4 43 -8 79 -8 100 0 101 1 160 234 60 239 60
247 -23 245 -29 -1 -63 -4 -76 -6z"/>
</g>
</svg>
